<mxfile host="Electron" agent="Mozilla/5.0 (X11; Linux x86_64) AppleWebKit/537.36 (KHTML, like Gecko) draw.io/24.7.5 Chrome/126.0.6478.183 Electron/31.3.0 Safari/537.36" version="24.7.5">
  <diagram name="Page-1" id="Ofc7n3BC5aOCzSQyffId">
    <mxGraphModel dx="1685" dy="1003" grid="1" gridSize="10" guides="1" tooltips="1" connect="1" arrows="1" fold="1" page="1" pageScale="1" pageWidth="850" pageHeight="1100" math="1" shadow="0">
      <root>
        <mxCell id="0" />
        <mxCell id="1" parent="0" />
        <mxCell id="TCjycTu5PbuyrmNajNH3-1" value="" style="endArrow=blockThin;html=1;rounded=0;endFill=1;strokeWidth=2;" parent="1" edge="1">
          <mxGeometry width="50" height="50" relative="1" as="geometry">
            <mxPoint x="10" y="440" as="sourcePoint" />
            <mxPoint x="1240" y="440" as="targetPoint" />
          </mxGeometry>
        </mxCell>
        <mxCell id="TCjycTu5PbuyrmNajNH3-5" value="" style="endArrow=none;html=1;rounded=0;strokeWidth=3;strokeColor=#FF3333;" parent="1" edge="1">
          <mxGeometry width="50" height="50" relative="1" as="geometry">
            <mxPoint x="280" y="440" as="sourcePoint" />
            <mxPoint x="360" y="280" as="targetPoint" />
          </mxGeometry>
        </mxCell>
        <mxCell id="TCjycTu5PbuyrmNajNH3-6" value="" style="endArrow=none;html=1;rounded=0;strokeWidth=3;strokeColor=#FF3333;" parent="1" edge="1">
          <mxGeometry width="50" height="50" relative="1" as="geometry">
            <mxPoint x="440" y="440" as="sourcePoint" />
            <mxPoint x="360" y="280" as="targetPoint" />
          </mxGeometry>
        </mxCell>
        <mxCell id="TCjycTu5PbuyrmNajNH3-8" value="" style="endArrow=none;html=1;rounded=0;strokeWidth=3;strokeColor=#FF3333;" parent="1" edge="1">
          <mxGeometry width="50" height="50" relative="1" as="geometry">
            <mxPoint x="520" y="440" as="sourcePoint" />
            <mxPoint x="600" y="280" as="targetPoint" />
          </mxGeometry>
        </mxCell>
        <mxCell id="TCjycTu5PbuyrmNajNH3-9" value="" style="endArrow=none;html=1;rounded=0;strokeWidth=3;strokeColor=#FF3333;" parent="1" edge="1">
          <mxGeometry width="50" height="50" relative="1" as="geometry">
            <mxPoint x="680" y="440" as="sourcePoint" />
            <mxPoint x="600" y="280" as="targetPoint" />
          </mxGeometry>
        </mxCell>
        <mxCell id="TCjycTu5PbuyrmNajNH3-10" value="&lt;font style=&quot;font-size: 24px;&quot;&gt;0&lt;/font&gt;" style="text;html=1;align=center;verticalAlign=middle;whiteSpace=wrap;rounded=0;" parent="1" vertex="1">
          <mxGeometry x="580" y="449" width="60" height="30" as="geometry" />
        </mxCell>
        <mxCell id="TCjycTu5PbuyrmNajNH3-11" value="" style="endArrow=none;html=1;rounded=0;strokeWidth=3;strokeColor=#FF3333;" parent="1" edge="1">
          <mxGeometry width="50" height="50" relative="1" as="geometry">
            <mxPoint x="760" y="440" as="sourcePoint" />
            <mxPoint x="840" y="280" as="targetPoint" />
          </mxGeometry>
        </mxCell>
        <mxCell id="TCjycTu5PbuyrmNajNH3-12" value="" style="endArrow=none;html=1;rounded=0;strokeWidth=3;strokeColor=#FF3333;" parent="1" edge="1">
          <mxGeometry width="50" height="50" relative="1" as="geometry">
            <mxPoint x="920" y="440" as="sourcePoint" />
            <mxPoint x="840" y="280" as="targetPoint" />
          </mxGeometry>
        </mxCell>
        <mxCell id="TCjycTu5PbuyrmNajNH3-13" value="&lt;font style=&quot;font-size: 24px;&quot;&gt;$$f_s$$&lt;/font&gt;" style="text;html=1;align=center;verticalAlign=middle;whiteSpace=wrap;rounded=0;" parent="1" vertex="1">
          <mxGeometry x="810" y="449" width="60" height="30" as="geometry" />
        </mxCell>
        <mxCell id="TCjycTu5PbuyrmNajNH3-14" value="&lt;font size=&quot;1&quot; style=&quot;&quot;&gt;&lt;b style=&quot;font-size: 32px;&quot;&gt;...&lt;/b&gt;&lt;/font&gt;" style="text;html=1;align=center;verticalAlign=middle;whiteSpace=wrap;rounded=0;" parent="1" vertex="1">
          <mxGeometry x="930" y="340" width="60" height="30" as="geometry" />
        </mxCell>
        <mxCell id="TCjycTu5PbuyrmNajNH3-16" value="&lt;font size=&quot;1&quot; style=&quot;&quot;&gt;&lt;b style=&quot;font-size: 32px;&quot;&gt;...&lt;/b&gt;&lt;/font&gt;" style="text;html=1;align=center;verticalAlign=middle;whiteSpace=wrap;rounded=0;" parent="1" vertex="1">
          <mxGeometry x="210" y="340" width="60" height="30" as="geometry" />
        </mxCell>
        <mxCell id="TCjycTu5PbuyrmNajNH3-17" value="&lt;font style=&quot;font-size: 24px;&quot;&gt;$$f_s$$&lt;/font&gt;" style="text;html=1;align=center;verticalAlign=middle;whiteSpace=wrap;rounded=0;" parent="1" vertex="1">
          <mxGeometry x="330" y="449" width="60" height="30" as="geometry" />
        </mxCell>
        <mxCell id="TCjycTu5PbuyrmNajNH3-18" value="" style="endArrow=none;html=1;rounded=0;strokeWidth=5;strokeColor=#B5739D;" parent="1" edge="1">
          <mxGeometry width="50" height="50" relative="1" as="geometry">
            <mxPoint x="320" y="440" as="sourcePoint" />
            <mxPoint x="320" y="360" as="targetPoint" />
          </mxGeometry>
        </mxCell>
        <mxCell id="TCjycTu5PbuyrmNajNH3-19" value="" style="endArrow=none;html=1;rounded=0;strokeWidth=5;strokeColor=#B5739D;" parent="1" edge="1">
          <mxGeometry width="50" height="50" relative="1" as="geometry">
            <mxPoint x="560" y="440" as="sourcePoint" />
            <mxPoint x="560" y="360" as="targetPoint" />
          </mxGeometry>
        </mxCell>
        <mxCell id="TCjycTu5PbuyrmNajNH3-20" value="" style="endArrow=none;html=1;rounded=0;dashed=1;strokeColor=#919191;" parent="1" edge="1">
          <mxGeometry width="50" height="50" relative="1" as="geometry">
            <mxPoint x="720" y="480" as="sourcePoint" />
            <mxPoint x="720" y="220" as="targetPoint" />
          </mxGeometry>
        </mxCell>
        <mxCell id="TCjycTu5PbuyrmNajNH3-21" value="" style="endArrow=none;html=1;rounded=0;dashed=1;strokeColor=#919191;" parent="1" edge="1">
          <mxGeometry width="50" height="50" relative="1" as="geometry">
            <mxPoint x="460" y="480" as="sourcePoint" />
            <mxPoint x="460" y="220" as="targetPoint" />
          </mxGeometry>
        </mxCell>
        <mxCell id="TCjycTu5PbuyrmNajNH3-22" value="&lt;font style=&quot;font-size: 16px;&quot;&gt;$$\frac{1}{2}f_s$$&lt;/font&gt;" style="text;html=1;align=center;verticalAlign=middle;whiteSpace=wrap;rounded=0;" parent="1" vertex="1">
          <mxGeometry x="700" y="490" width="60" height="30" as="geometry" />
        </mxCell>
        <mxCell id="TCjycTu5PbuyrmNajNH3-23" value="&lt;font style=&quot;font-size: 16px;&quot;&gt;$$-\frac{1}{2}f_s$$&lt;/font&gt;" style="text;html=1;align=center;verticalAlign=middle;whiteSpace=wrap;rounded=0;" parent="1" vertex="1">
          <mxGeometry x="430" y="490" width="60" height="30" as="geometry" />
        </mxCell>
        <mxCell id="TCjycTu5PbuyrmNajNH3-24" value="" style="endArrow=none;html=1;rounded=0;strokeWidth=5;strokeColor=#B5739D;" parent="1" edge="1">
          <mxGeometry width="50" height="50" relative="1" as="geometry">
            <mxPoint x="800" y="440" as="sourcePoint" />
            <mxPoint x="800" y="360" as="targetPoint" />
          </mxGeometry>
        </mxCell>
        <mxCell id="TCjycTu5PbuyrmNajNH3-25" value="" style="endArrow=none;html=1;rounded=0;strokeWidth=5;strokeColor=#7EA6E0;" parent="1" edge="1">
          <mxGeometry width="50" height="50" relative="1" as="geometry">
            <mxPoint x="400" y="440" as="sourcePoint" />
            <mxPoint x="400" y="360" as="targetPoint" />
          </mxGeometry>
        </mxCell>
        <mxCell id="TCjycTu5PbuyrmNajNH3-26" value="" style="endArrow=none;html=1;rounded=0;strokeWidth=5;strokeColor=#7EA6E0;" parent="1" edge="1">
          <mxGeometry width="50" height="50" relative="1" as="geometry">
            <mxPoint x="640" y="440" as="sourcePoint" />
            <mxPoint x="640" y="360" as="targetPoint" />
          </mxGeometry>
        </mxCell>
        <mxCell id="TCjycTu5PbuyrmNajNH3-27" value="" style="endArrow=none;html=1;rounded=0;strokeWidth=5;strokeColor=#7EA6E0;" parent="1" edge="1">
          <mxGeometry width="50" height="50" relative="1" as="geometry">
            <mxPoint x="880" y="440" as="sourcePoint" />
            <mxPoint x="880" y="360" as="targetPoint" />
          </mxGeometry>
        </mxCell>
        <mxCell id="TCjycTu5PbuyrmNajNH3-28" value="" style="endArrow=none;html=1;rounded=0;strokeWidth=3;strokeColor=#FF3333;" parent="1" edge="1">
          <mxGeometry width="50" height="50" relative="1" as="geometry">
            <mxPoint x="1000" y="440" as="sourcePoint" />
            <mxPoint x="1080" y="280" as="targetPoint" />
          </mxGeometry>
        </mxCell>
        <mxCell id="TCjycTu5PbuyrmNajNH3-29" value="" style="endArrow=none;html=1;rounded=0;strokeWidth=3;strokeColor=#FF3333;" parent="1" edge="1">
          <mxGeometry width="50" height="50" relative="1" as="geometry">
            <mxPoint x="1160" y="440" as="sourcePoint" />
            <mxPoint x="1080" y="280" as="targetPoint" />
          </mxGeometry>
        </mxCell>
        <mxCell id="TCjycTu5PbuyrmNajNH3-30" value="&lt;font style=&quot;font-size: 24px;&quot;&gt;$$kf_s$$&lt;/font&gt;" style="text;html=1;align=center;verticalAlign=middle;whiteSpace=wrap;rounded=0;" parent="1" vertex="1">
          <mxGeometry x="1050" y="449" width="60" height="30" as="geometry" />
        </mxCell>
        <mxCell id="TCjycTu5PbuyrmNajNH3-31" value="" style="endArrow=none;html=1;rounded=0;strokeWidth=5;strokeColor=#B5739D;" parent="1" edge="1">
          <mxGeometry width="50" height="50" relative="1" as="geometry">
            <mxPoint x="1040" y="440" as="sourcePoint" />
            <mxPoint x="1040" y="360" as="targetPoint" />
          </mxGeometry>
        </mxCell>
        <mxCell id="TCjycTu5PbuyrmNajNH3-32" value="" style="endArrow=none;html=1;rounded=0;strokeWidth=5;strokeColor=#7EA6E0;" parent="1" edge="1">
          <mxGeometry width="50" height="50" relative="1" as="geometry">
            <mxPoint x="1120" y="440" as="sourcePoint" />
            <mxPoint x="1120" y="360" as="targetPoint" />
          </mxGeometry>
        </mxCell>
        <mxCell id="TCjycTu5PbuyrmNajNH3-33" value="" style="endArrow=none;html=1;rounded=0;dashed=1;strokeColor=#919191;strokeWidth=3;" parent="1" edge="1">
          <mxGeometry width="50" height="50" relative="1" as="geometry">
            <mxPoint x="600" y="520" as="sourcePoint" />
            <mxPoint x="600" y="190" as="targetPoint" />
          </mxGeometry>
        </mxCell>
        <mxCell id="TCjycTu5PbuyrmNajNH3-34" value="" style="endArrow=none;html=1;rounded=0;strokeWidth=3;strokeColor=#FF3333;" parent="1" edge="1">
          <mxGeometry width="50" height="50" relative="1" as="geometry">
            <mxPoint x="40" y="440" as="sourcePoint" />
            <mxPoint x="120" y="280" as="targetPoint" />
          </mxGeometry>
        </mxCell>
        <mxCell id="TCjycTu5PbuyrmNajNH3-35" value="" style="endArrow=none;html=1;rounded=0;strokeWidth=3;strokeColor=#FF3333;" parent="1" edge="1">
          <mxGeometry width="50" height="50" relative="1" as="geometry">
            <mxPoint x="200" y="440" as="sourcePoint" />
            <mxPoint x="120" y="280" as="targetPoint" />
          </mxGeometry>
        </mxCell>
        <mxCell id="TCjycTu5PbuyrmNajNH3-36" value="&lt;font style=&quot;font-size: 24px;&quot;&gt;$$-kf_s$$&lt;/font&gt;" style="text;html=1;align=center;verticalAlign=middle;whiteSpace=wrap;rounded=0;" parent="1" vertex="1">
          <mxGeometry x="90" y="449" width="60" height="30" as="geometry" />
        </mxCell>
        <mxCell id="TCjycTu5PbuyrmNajNH3-37" value="" style="endArrow=none;html=1;rounded=0;strokeWidth=5;strokeColor=#B5739D;" parent="1" edge="1">
          <mxGeometry width="50" height="50" relative="1" as="geometry">
            <mxPoint x="80" y="440" as="sourcePoint" />
            <mxPoint x="80" y="360" as="targetPoint" />
          </mxGeometry>
        </mxCell>
        <mxCell id="TCjycTu5PbuyrmNajNH3-38" value="" style="endArrow=none;html=1;rounded=0;strokeWidth=5;strokeColor=#7EA6E0;" parent="1" edge="1">
          <mxGeometry width="50" height="50" relative="1" as="geometry">
            <mxPoint x="160" y="440" as="sourcePoint" />
            <mxPoint x="160" y="360" as="targetPoint" />
          </mxGeometry>
        </mxCell>
        <mxCell id="TCjycTu5PbuyrmNajNH3-39" value="&lt;font style=&quot;font-size: 16px;&quot;&gt;$$-\Delta f$$&lt;/font&gt;" style="text;html=1;align=center;verticalAlign=middle;whiteSpace=wrap;rounded=0;" parent="1" vertex="1">
          <mxGeometry x="530" y="439" width="60" height="30" as="geometry" />
        </mxCell>
        <mxCell id="TCjycTu5PbuyrmNajNH3-40" value="&lt;font style=&quot;font-size: 16px;&quot;&gt;$$\Delta f$$&lt;/font&gt;" style="text;html=1;align=center;verticalAlign=middle;whiteSpace=wrap;rounded=0;" parent="1" vertex="1">
          <mxGeometry x="610" y="439" width="60" height="30" as="geometry" />
        </mxCell>
        <mxCell id="GYOYueYA3oWjG7I-ISy8-1" value="" style="endArrow=none;html=1;rounded=0;dashed=1;strokeColor=#919191;strokeWidth=1;" edge="1" parent="1" source="TCjycTu5PbuyrmNajNH3-13">
          <mxGeometry width="50" height="50" relative="1" as="geometry">
            <mxPoint x="839.66" y="520" as="sourcePoint" />
            <mxPoint x="839.66" y="190" as="targetPoint" />
          </mxGeometry>
        </mxCell>
        <mxCell id="GYOYueYA3oWjG7I-ISy8-2" value="" style="endArrow=none;html=1;rounded=0;dashed=1;strokeColor=#919191;strokeWidth=1;" edge="1" parent="1">
          <mxGeometry width="50" height="50" relative="1" as="geometry">
            <mxPoint x="1080" y="450" as="sourcePoint" />
            <mxPoint x="1079.6599999999999" y="190" as="targetPoint" />
          </mxGeometry>
        </mxCell>
        <mxCell id="GYOYueYA3oWjG7I-ISy8-3" value="" style="endArrow=none;html=1;rounded=0;dashed=1;strokeColor=#919191;strokeWidth=1;" edge="1" parent="1" source="TCjycTu5PbuyrmNajNH3-17">
          <mxGeometry width="50" height="50" relative="1" as="geometry">
            <mxPoint x="359.65999999999985" y="520" as="sourcePoint" />
            <mxPoint x="359.65999999999985" y="190" as="targetPoint" />
          </mxGeometry>
        </mxCell>
        <mxCell id="GYOYueYA3oWjG7I-ISy8-4" value="" style="endArrow=none;html=1;rounded=0;dashed=1;strokeColor=#919191;strokeWidth=1;" edge="1" parent="1">
          <mxGeometry width="50" height="50" relative="1" as="geometry">
            <mxPoint x="120" y="440" as="sourcePoint" />
            <mxPoint x="119.65999999999985" y="190" as="targetPoint" />
          </mxGeometry>
        </mxCell>
      </root>
    </mxGraphModel>
  </diagram>
</mxfile>
